Coordinates
version=1
nRows=7
nColumns=46
inDegrees=yes

Units are S.I. units (second, meters, Newtons, ...)
Angles are in degrees.

endheader
time	pelvis_tilt	pelvis_list	pelvis_rotation	pelvis_tx	pelvis_ty	pelvis_tz	bb_angle	bb_tx	bb_ty	bb_tz	hip_flexion_r	hip_adduction_r	hip_rotation_r	knee_angle_r	knee_angle_r_beta	ankle_angle_r	subtalar_angle_r	mtp_angle_r	crank_angle_r	hip_flexion_l	hip_adduction_l	hip_rotation_l	knee_angle_l	knee_angle_l_beta	ankle_angle_l	subtalar_angle_l	mtp_angle_l	crank_angle_l	lumbar_extension	lumbar_bending	lumbar_rotation	arm_flex_r	arm_add_r	arm_rot_r	elbow_flex_r	pro_sup_r	wrist_flex_r	wrist_dev_r	arm_flex_l	arm_add_l	arm_rot_l	elbow_flex_l	pro_sup_l	wrist_flex_l	wrist_dev_l
      2.50500000	    -25.99989805	      4.47939027	      7.74689287	      0.40278891	      1.25231080	     -0.24968731	      0.00000000	      0.50000000	      0.00000000	      0.25000000	     25.87583021	    -13.54093356	    -15.92652090	     22.07881816	      0.38534807	    -31.96826945	     -0.90118691	      0.00000000	      0.00000000	     71.44875951	      0.43563150	     -2.12256719	     88.91740422	      1.55190147	     22.92772975	      6.72755404	      0.00000000	      0.00000000	    -49.66480882	     -8.27391847	     -0.67542063	     50.96827646	    -23.66677926	     24.56749610	     38.98557536	     43.47961792	      0.00000000	      0.00000000	     69.76347626	      0.11072285	     58.78275361	     29.52202922	     45.83529371	      0.00000000	      0.00000000
      2.51000000	    -25.77395694	      4.32120315	      7.69930113	      0.40304012	      1.25280379	     -0.25044157	      0.00000000	      0.50000000	      0.00000000	      0.25000000	     26.11409144	    -13.51093771	    -15.58306426	     23.35512712	      0.40762387	    -31.67798296	     -1.47895770	      0.00000000	      0.00000000	     70.99634231	      0.53105581	     -2.00651574	     88.22391994	      1.53979788	     23.20282590	      6.34189504	      0.00000000	      0.00000000	    -50.00312060	     -8.22623387	     -0.75082391	     51.37339316	    -23.79319758	     25.42000428	     38.64530116	     43.66285495	      0.00000000	      0.00000000	     69.71395498	     -0.46835979	     58.77900472	     30.55692805	     45.90333704	      0.00000000	      0.00000000
      2.51500000	    -25.71015451	      4.09381310	      7.66267017	      0.40325179	      1.25289494	     -0.25116640	      0.00000000	      0.50000000	      0.00000000	      0.25000000	     26.57004895	    -13.42671975	    -15.22523489	     24.71118571	      0.43129155	    -31.38189147	     -2.01768816	      0.00000000	      0.00000000	     70.74436324	      0.60056187	     -1.83475278	     87.54522729	      1.52795246	     23.39532952	      6.08714714	      0.00000000	      0.00000000	    -50.19770273	     -8.14647088	     -0.63554866	     51.02479679	    -23.92593309	     24.57121777	     39.62924109	     43.69411283	      0.00000000	      0.00000000	     69.27237998	     -0.66862854	     57.42069611	     31.83406030	     45.84536790	      0.00000000	      0.00000000
      2.52000000	    -25.29345590	      3.94447888	      7.69300034	      0.40360225	      1.25353719	     -0.25188094	      0.00000000	      0.50000000	      0.00000000	      0.25000000	     26.61234762	    -13.43199933	    -15.05587453	     26.08022655	      0.45518582	    -31.01492420	     -2.69474588	      0.00000000	      0.00000000	     70.07379079	      0.73857348	     -1.67447399	     86.81566437	      1.51521919	     23.53441236	      5.76299631	      0.00000000	      0.00000000	    -50.64743736	     -8.04984782	     -0.73873963	     51.73905206	    -23.73536442	     25.60980414	     38.29962847	     43.71212385	      0.00000000	      0.00000000	     69.30626317	     -0.85219905	     57.48088189	     32.00128269	     45.78041064	      0.00000000	      0.00000000
      2.52500000	    -25.10219455	      3.72560972	      7.70020923	      0.40386763	      1.25374148	     -0.25259047	      0.00000000	      0.50000000	      0.00000000	      0.25000000	     26.96271949	    -13.38566381	    -14.84219296	     27.51761379	      0.48027296	    -30.71786439	     -3.31930233	      0.00000000	      0.00000000	     69.66330592	      0.79237580	     -1.50441037	     86.09914241	      1.50271352	     23.69307138	      5.53545008	      0.00000000	      0.00000000	    -50.96243012	     -7.93333576	     -0.65040719	     51.45982887	    -23.89829224	     24.90333082	     39.12678462	     43.74053173	      0.00000000	      0.00000000	     68.89551066	     -1.06947976	     56.15064499	     33.26443776	     45.72450833	      0.00000000	      0.00000000
      2.53000000	    -25.03174389	      3.47339729	      7.66048980	      0.40402331	      1.25371969	     -0.25326559	      0.00000000	      0.50000000	      0.00000000	      0.25000000	     27.49259144	    -13.30446456	    -14.52990536	     28.98904942	      0.50595436	    -30.41557326	     -3.74988097	      0.00000000	      0.00000000	     69.38951217	      0.79524993	     -1.30854420	     85.40043919	      1.49051885	     23.83380076	      5.30945685	      0.00000000	      0.00000000	    -51.13188529	     -7.80181425	     -0.53059898	     51.16735575	    -24.00259649	     24.13263390	     40.03982075	     43.76293073	      0.00000000	      0.00000000	     68.43585236	     -1.30077870	     54.83548977	     34.45415559	     45.67197153	      0.00000000	      0.00000000
      2.53500000	    -24.70279771	      3.26297226	      7.60169380	      0.40427072	      1.25401374	     -0.25372839	      0.00000000	      0.50000000	      0.00000000	      0.25000000	     27.76710790	    -13.21926979	    -14.24397738	     30.49709027	      0.53227464	    -30.08117311	     -4.26987473	      0.00000000	      0.00000000	     68.80180914	      0.76358213	     -1.19997890	     84.61391190	      1.47679136	     23.91167343	      4.94747923	      0.00000000	      0.00000000	    -51.40786323	     -7.72840943	     -0.61615755	     52.13076736	    -23.84943577	     26.13179633	     38.26025273	     43.88504672	      0.00000000	      0.00000000	     68.65943165	     -1.87217083	     56.27286888	     34.45464735	     45.89144743	      0.00000000	      0.00000000
